<svg xmlns="http://www.w3.org/2000/svg" viewBox="0 0 32 32">
  <rect width="32" height="32" rx="9.6" fill="#0e7a4d"/>
  <svg x="6" y="7" width="20" height="18" viewBox="0 0 44 37" preserveAspectRatio="xMidYMid meet">
    <path d="M23 5.5C29.6274 5.5 35 10.8726 35 17.5V20.5H26M23 5.5C16.3726 5.5 11 10.8726 11 17.5V20.5H20M23 5.5V2.5M22 23.5H24M22 23.5L20 20.5M22 23.5V33.8074C22 33.9346 22.0243 34.0607 22.0715 34.1788L22.3771 34.9427C22.6584 35.6459 23.5889 35.7933 24.0738 35.2115L25.2127 33.8447C25.3955 33.6254 25.4758 33.3385 25.4334 33.0562L24 23.5M24 23.5L26 20.5M26 20.5H20M4 19V21C4 22.6569 5.34315 24 7 24H10.5C12.1569 24 13.5 25.3431 13.5 27V36M4 19H6.5M4 19H1.5M1.5 19H0.5M1.5 19V17.5C1.5 16.1193 2.61929 15 4 15M7.5 19H6.5M6.5 19V17.5C6.5 16.1193 5.38071 15 4 15M4 15V14.5M28 24H34.5C36.1569 24 37.5 25.3431 37.5 27V28M37.5 28H37.9333C38.5224 28 39 28.4776 39 29.0667C39 29.6558 38.5224 30.1333 37.9333 30.1333M37.5 28H37.0667C36.4776 28 36 28.4776 36 29.0667C36 29.6558 36.4776 30.1333 37.0667 30.1333M37.0667 30.1333H37.9333M37.0667 30.1333H35C33.3431 30.1333 32 31.4765 32 33.1333V36H43V33.1333C43 31.4765 41.6569 30.1333 40 30.1333H37.9333M15 24H19M23 2.5C22.4477 2.5 22 2.05228 22 1.5C22 0.947715 22.4477 0.5 23 0.5C23.5523 0.5 24 0.947715 24 1.5C24 2.05228 23.5523 2.5 23 2.5ZM38 32V34.5M40 34.5V32M35 34.5L37 32M27.5 15.5C26.9477 15.5 26.5 15.0523 26.5 14.5C26.5 13.9477 26.9477 13.5 27.5 13.5C28.0523 13.5 28.5 13.9477 28.5 14.5C28.5 15.0523 28.0523 15.5 27.5 15.5ZM18.5 15.5C17.9477 15.5 17.5 15.0523 17.5 14.5C17.5 13.9477 17.9477 13.5 18.5 13.5C19.0523 13.5 19.5 13.9477 19.5 14.5C19.5 15.0523 19.0523 15.5 18.5 15.5Z" fill="none" stroke="#ffffff" stroke-width="2" stroke-linecap="round" stroke-linejoin="round"/>
  </svg>
</svg>
